<svg xmlns="http://www.w3.org/2000/svg" viewBox="0 0 500 500"><g id="freepik--Floor--inject-17"><ellipse id="freepik--floor--inject-17" cx="252" cy="337.65" rx="223.4" ry="128.98" style="fill:#f5f5f5"></ellipse></g><g id="freepik--Shadows--inject-17"><path id="freepik--Shadow--inject-17" d="M161.08,400.39l102.4-53.64c6-3.18,6-8.23-.11-11.29L185,296.25c-6.11-3.06-16-3-22,.19L67.29,346.25c-6.05,3.17-6.16,8.5-.25,11.92L139.41,400C145.33,403.37,155,403.56,161.08,400.39Z" style="fill:#e0e0e0"></path><path id="freepik--shadow--inject-17" d="M178.91,410.41l82.51-47.64a11.54,11.54,0,0,1,10.43,0L325,393.46c2.88,1.66,2.88,4.36,0,6L242.5,447.12a11.54,11.54,0,0,1-10.43,0l-53.16-30.69C176,414.76,176,412.07,178.91,410.41Z" style="fill:#e0e0e0"></path><path id="freepik--shadow--inject-17" d="M339,298c-26.57,15.34-26.57,40.21,0,55.56s69.65,15.34,96.23,0,26.57-40.22,0-55.56S365.59,282.68,339,298Z" style="fill:#e0e0e0"></path><path id="freepik--shadow--inject-17" d="M258.35,252.55c-12.29,7.1-12.29,18.61,0,25.71s32.23,7.1,44.53,0,12.29-18.61,0-25.71S270.65,245.46,258.35,252.55Z" style="fill:#e0e0e0"></path></g><g id="freepik--Lamp--inject-17"><g id="freepik--lamp--inject-17"><path d="M265.19,252.86c-8.51,4.92-8.51,12.89,0,17.81s22.32,4.92,30.84,0,8.51-12.89,0-17.81S273.71,248,265.19,252.86Z" style="fill:#37474f"></path><path d="M302.42,261.77h0c0-3.23-2.1-6.45-6.36-8.91-8.52-4.91-22.33-4.91-30.84,0-4.26,2.46-6.38,5.68-6.37,8.91h0v3h0c.05,3.18,2.18,6.35,6.39,8.78,8.51,4.91,22.32,4.91,30.84,0,4.2-2.43,6.33-5.6,6.38-8.78h0Z" style="fill:#263238"></path><path d="M265.19,252.86c-8.51,4.92-8.51,12.89,0,17.81s22.32,4.92,30.84,0,8.51-12.89,0-17.81S273.71,248,265.19,252.86Z" style="fill:#37474f"></path><path d="M283,99.93h-4.69V260.36h0a1.09,1.09,0,0,0,.67,1.07,3.66,3.66,0,0,0,3.32,0,1.08,1.08,0,0,0,.66-1.07h0Z" style="fill:#455a64"></path><path d="M311.25,95.45h0l-7.55-36.13H257.52L250,95.45h0c-2,5.76.77,12,8.51,16.44,12.22,7.06,32,7.06,44.26,0C310.48,107.43,313.3,101.21,311.25,95.45Z" style="fill:#3042C8"></path><path d="M264.2,70.18c9.06,5.23,23.77,5.23,32.84,0s9.06-13.73,0-19-23.78-5.24-32.84,0S255.13,64.94,264.2,70.18Z" style="fill:#3042C8"></path><path d="M264.2,70.18c9.06,5.23,23.77,5.23,32.84,0s9.06-13.73,0-19-23.78-5.24-32.84,0S255.13,64.94,264.2,70.18Z" style="fill:#fff;opacity:0.6000000000000001"></path><path d="M280.62,70.81a29,29,0,0,1-14.23-3.37c-3.32-1.91-5.15-4.31-5.15-6.74s1.83-4.83,5.15-6.75a31.71,31.71,0,0,1,28.45,0c3.32,1.92,5.15,4.31,5.15,6.75s-1.83,4.83-5.15,6.74A29,29,0,0,1,280.62,70.81Z" style="fill:#3042C8"></path></g></g><g id="freepik--Table--inject-17"><g id="freepik--table--inject-17"><g id="freepik--table--inject-17"><path d="M326.9,308.48a2.32,2.32,0,0,1,1.38-1.94,7.44,7.44,0,0,1,6.72,0,2.36,2.36,0,0,1,1.39,1.93L335,335.9h0a1.67,1.67,0,0,1-1,1.34,5.21,5.21,0,0,1-4.74,0,1.67,1.67,0,0,1-1-1.34h0Z" style="fill:#455a64"></path><path d="M335,306.54a7.44,7.44,0,0,0-6.72,0,2.32,2.32,0,0,0-1.38,1.94l.59,11.71a47.53,47.53,0,0,0,8,6.63l.93-18.35A2.36,2.36,0,0,0,335,306.54Z" style="fill:#263238"></path><path d="M446.71,308.48a2.32,2.32,0,0,0-1.38-1.94,7.44,7.44,0,0,0-6.72,0,2.36,2.36,0,0,0-1.39,1.93l1.39,27.43h0a1.67,1.67,0,0,0,1,1.34,5.21,5.21,0,0,0,4.74,0,1.67,1.67,0,0,0,1-1.34h0Z" style="fill:#455a64"></path><path d="M445.33,306.54a7.44,7.44,0,0,0-6.72,0,2.36,2.36,0,0,0-1.39,1.93l1,18.77a50,50,0,0,0,7.91-6.34l.62-12.42A2.32,2.32,0,0,0,445.33,306.54Z" style="fill:#263238"></path><path d="M391.88,329.48a2.36,2.36,0,0,0-1.39-1.94,7.44,7.44,0,0,0-6.72,0,2.36,2.36,0,0,0-1.39,1.93l1.39,27.43h0a1.67,1.67,0,0,0,1,1.34,5.21,5.21,0,0,0,4.74,0,1.67,1.67,0,0,0,1-1.34h0Z" style="fill:#455a64"></path><path d="M391.32,340.48l.56-11a2.36,2.36,0,0,0-1.39-1.94,7.44,7.44,0,0,0-6.72,0,2.36,2.36,0,0,0-1.39,1.93l.56,11C385.73,340.58,388.53,340.58,391.32,340.48Z" style="fill:#263238"></path><path d="M455.18,291.32h-.07c0-10.05-6.58-20.11-19.87-27.78-26.57-15.34-69.65-15.34-96.22,0-13.29,7.67-19.88,17.73-19.87,27.78h-.06v5.4h0c.15,9.92,6.81,19.81,19.93,27.39,26.57,15.34,69.65,15.34,96.22,0,13.12-7.57,19.78-17.47,19.94-27.39h0Z" style="fill:#3042C8"></path><path d="M339,263.54c-26.57,15.34-26.57,40.22,0,55.56s69.65,15.34,96.23,0,26.57-40.22,0-55.56S365.59,248.2,339,263.54Z" style="fill:#3042C8"></path><g style="opacity:0.6000000000000001"><path d="M339,263.54c-26.57,15.34-26.57,40.22,0,55.56s69.65,15.34,96.23,0,26.57-40.22,0-55.56S365.59,248.2,339,263.54Z" style="fill:#fff"></path></g></g><g id="freepik--Bookv--inject-17"><polygon points="394.19 303.13 369.2 317.49 334.5 297.46 359.49 283.09 394.19 303.13" style="fill:#455a64"></polygon><path d="M369,316.58l24.24-14a8.5,8.5,0,0,1,.11-5.29l-24.12,13.9A20.31,20.31,0,0,0,369,316.58Z" style="fill:#f5f5f5"></path><path d="M370.24,309.52a4.29,4.29,0,0,0-1.95,3.37v3.94c0,1.24.87,1.74,1.95,1.12l23.95-13.85v-1l-23.68,13.62c-.65.37-1.17.07-1.17-.68l0-3.65a2.57,2.57,0,0,1,1.17-2l23.66-13.63v-1.1Z" style="fill:#263238"></path><path d="M394.19,295.67l-34.7-20-23.95,13.85a4.29,4.29,0,0,0-2,3.37v3.94a1.37,1.37,0,0,0,.57,1.26l34.7,20a1.38,1.38,0,0,1-.57-1.26v-3.94a4.31,4.31,0,0,1,1.95-3.38Z" style="fill:#455a64"></path><path d="M368.86,311a4,4,0,0,0-.57,1.92v3.94a1.38,1.38,0,0,0,.57,1.26l-34.7-20a1.37,1.37,0,0,1-.57-1.26v-3.94a4,4,0,0,1,.57-1.92Z" style="fill:#37474f"></path></g><g id="freepik--Pot--inject-17"><g style="opacity:0.05"><path d="M417.67,271.88c6,3.44,6,9,0,12.45s-15.62,3.45-21.58,0-6-9,0-12.45S411.71,268.43,417.67,271.88Z"></path></g><path d="M397.39,278.87c-5.19-5.29-8.24-18.52-3.18-22.72H420c5.06,4.2,2,17.42-3.17,22.72l-.14.14-.18.18c-.15.14-.3.28-.47.42l-.12.09-.4.3a6.9,6.9,0,0,1-.67.43,17.12,17.12,0,0,1-15.46,0h0c-.23-.13-.45-.28-.67-.43l-.37-.28-.15-.12c-.16-.13-.31-.27-.45-.4l-.21-.2Z" style="fill:#ebebeb"></path><path d="M417.73,254.46c5.88,3.4,5.88,8.9,0,12.29s-15.4,3.39-21.28,0-5.87-8.89,0-12.29S411.86,251.07,417.73,254.46Z" style="fill:#fafafa"></path><path d="M413.57,256.87c3.57,2.06,3.57,5.41,0,7.47a14.28,14.28,0,0,1-12.95,0c-3.58-2.06-3.58-5.41,0-7.47A14.28,14.28,0,0,1,413.57,256.87Z" style="fill:#ebebeb"></path><path d="M400.62,260.42a14.28,14.28,0,0,1,12.95,0,5.88,5.88,0,0,1,2.14,2,5.88,5.88,0,0,1-2.14,2,14.28,14.28,0,0,1-12.95,0,5.88,5.88,0,0,1-2.14-2A5.88,5.88,0,0,1,400.62,260.42Z" style="fill:#e0e0e0"></path><path d="M412.78,262.38a29.24,29.24,0,0,0,4.68-6.23c2.16-3.82,2.56-8.94,1.45-9.58s-5.67,4.48-5.67,4.48a27.73,27.73,0,0,0,.48-6.53c-.2-3.4-1-6.5-2-7.12s-3.16,3.67-4.1,6.79-1.49,5.67-1.49,5.67a48.26,48.26,0,0,0-1.68-7.17c-1.13-3.23-2.16-4-3-3.64s-1.33,1.83-1.56,6.13a43.56,43.56,0,0,0,.19,6.17s-1.6-1.77-3.38-3.48c-2-1.88-2.8-2.14-3.36-1.78s-.71,3.28,2.32,8.76a30.41,30.41,0,0,0,5.72,7.53S405.61,265.08,412.78,262.38Z" style="fill:#3042C8"></path><g style="opacity:0.30000000000000004"><path d="M412.78,262.38a29.24,29.24,0,0,0,4.68-6.23c2.16-3.82,2.56-8.94,1.45-9.58s-5.67,4.48-5.67,4.48a27.73,27.73,0,0,0,.48-6.53c-.2-3.4-1-6.5-2-7.12s-3.16,3.67-4.1,6.79-1.49,5.67-1.49,5.67a48.26,48.26,0,0,0-1.68-7.17c-1.13-3.23-2.16-4-3-3.64s-1.33,1.83-1.56,6.13a43.56,43.56,0,0,0,.19,6.17s-1.6-1.77-3.38-3.48c-2-1.88-2.8-2.14-3.36-1.78s-.71,3.28,2.32,8.76a30.41,30.41,0,0,0,5.72,7.53S405.61,265.08,412.78,262.38Z"></path></g></g></g></g><g id="freepik--Window--inject-17"><g id="freepik--window--inject-17"><polygon points="453.95 206.45 450.15 208.64 355.34 153.9 359.13 151.71 453.95 206.45" style="fill:#455a64"></polygon><polygon points="359.13 151.71 450.15 204.26 450.15 113.39 359.13 60.84 359.13 151.71" style="fill:#3042C8"></polygon><g style="opacity:0.8"><polygon points="359.13 151.71 450.15 204.26 450.15 113.39 359.13 60.84 359.13 151.71" style="fill:#fff"></polygon></g><polygon points="402.75 83.83 402.75 179.08 398.95 176.9 398.95 81.64 402.75 83.83" style="fill:#37474f"></polygon><polygon points="404.64 82.73 402.75 83.83 402.75 179.08 404.64 177.99 404.64 82.73" style="fill:#263238"></polygon><polygon points="402.75 83.83 398.95 81.64 400.85 80.54 404.64 82.73 402.75 83.83" style="fill:#fafafa"></polygon><path d="M351.54,156.09,454,215.21v-104L351.54,52.08Zm3.8-97.44,94.81,54.74v95.25L355.34,153.9Z" style="fill:#37474f"></path><polygon points="355.34 153.9 359.13 151.71 359.13 60.84 355.34 58.65 355.34 153.9" style="fill:#263238"></polygon><polygon points="351.54 52.08 355.33 49.89 457.74 109.01 453.95 111.2 351.54 52.08" style="fill:#455a64"></polygon><polygon points="457.74 109.01 453.95 111.2 453.95 215.21 457.74 213.02 457.74 109.01" style="fill:#263238"></polygon><polygon points="402.74 86.02 398.96 83.83 398.96 86.02 402.75 88.21 402.74 86.02" style="fill:#263238"></polygon><polygon points="402.75 88.21 404.64 87.11 402.74 86.02 402.75 88.21"></polygon></g></g><g id="freepik--Character--inject-17"><g id="freepik--character--inject-17"><path d="M76.39,285l79.71-41.64s5.61-27.27-13.28-57c0,0,5.62-53-3.81-70.59-6.9-13.43-15.17-11.6-15.17-11.6L33.3,145Z" style="fill:#3042C8"></path><path d="M123.84,104.15,33.3,145l3,9.66,99-44.7C129.45,102.91,123.84,104.15,123.84,104.15Z" style="fill:#fff;opacity:0.4"></path><path d="M124.18,188.89c.19,1.4,1.4,1.92,2.71,1.17a4.28,4.28,0,0,0,2-3.91c-.18-1.41-1.4-1.93-2.71-1.18A4.29,4.29,0,0,0,124.18,188.89Z" style="fill:#fff;opacity:0.4"></path><path d="M110.37,196.86c.19,1.4,1.41,1.93,2.72,1.17a4.28,4.28,0,0,0,2-3.91c-.19-1.41-1.4-1.93-2.71-1.18A4.3,4.3,0,0,0,110.37,196.86Z" style="fill:#fff;opacity:0.4"></path><path d="M96.57,204.83c.19,1.4,1.4,1.93,2.71,1.17a4.31,4.31,0,0,0,2-3.91c-.19-1.41-1.41-1.93-2.72-1.17A4.26,4.26,0,0,0,96.57,204.83Z" style="fill:#fff;opacity:0.4"></path><path d="M82.77,212.8c.18,1.4,1.4,1.93,2.71,1.17a4.27,4.27,0,0,0,2-3.91c-.19-1.4-1.4-1.93-2.71-1.17A4.27,4.27,0,0,0,82.77,212.8Z" style="fill:#fff;opacity:0.4"></path><path d="M157.05,364.42a2.34,2.34,0,0,0-1.39-1.94,7.41,7.41,0,0,0-6.71,0,2.38,2.38,0,0,0-1.39,1.94L149,391.85h0a1.69,1.69,0,0,0,1,1.34,5.27,5.27,0,0,0,4.74,0,1.69,1.69,0,0,0,1-1.34h0Z" style="fill:#455a64"></path><path d="M149,362.48a2.38,2.38,0,0,0-1.39,1.94l.51,9.95a11.86,11.86,0,0,0,8.47.22l.51-10.17a2.35,2.35,0,0,0-1.38-1.94A7.44,7.44,0,0,0,149,362.48Z" style="fill:#37474f"></path><path d="M237.72,317.83a2.36,2.36,0,0,0-1.39-1.94,7.41,7.41,0,0,0-6.71,0,2.37,2.37,0,0,0-1.39,1.94l1.39,27.43h0a1.65,1.65,0,0,0,1,1.33,5.21,5.21,0,0,0,4.74,0,1.7,1.7,0,0,0,1-1.33h0Z" style="fill:#455a64"></path><path d="M229.62,315.89a2.37,2.37,0,0,0-1.39,1.94L229,333l8.21-5,.51-10.17a2.36,2.36,0,0,0-1.39-1.94A7.41,7.41,0,0,0,229.62,315.89Z" style="fill:#37474f"></path><path d="M81.13,320.59a2.35,2.35,0,0,0-1.39-1.94,7.41,7.41,0,0,0-6.71,0,2.36,2.36,0,0,0-1.39,1.94L73,348h0a1.67,1.67,0,0,0,1,1.33,5.21,5.21,0,0,0,4.74,0,1.7,1.7,0,0,0,1-1.33h0Z" style="fill:#455a64"></path><path d="M73,318.65a2.36,2.36,0,0,0-1.39,1.94l.51,10,8.25,4.61.73-14.56a2.35,2.35,0,0,0-1.39-1.94A7.41,7.41,0,0,0,73,318.65Z" style="fill:#37474f"></path><path d="M24.18,161.69l41.23,156A16.11,16.11,0,0,0,72,326.25l70.87,40.91,4.27,2.46.16.1a12.07,12.07,0,0,0,9.7.5c.18-.08.37-.16.55-.26l79.78-46.13a10.57,10.57,0,0,0,5.19-8.53V287.71l-99.65,52.05L62.15,293.19l-38-131.5" style="fill:#3042C8"></path><path d="M24.18,161.69l41.23,156A16.11,16.11,0,0,0,72,326.25l70.87,40.91,4.27,2.46.16.1a12.07,12.07,0,0,0,9.7.5c.18-.08.37-.16.55-.26l79.78-46.13a10.57,10.57,0,0,0,5.19-8.53V287.71l-99.65,52.05L62.15,293.19l-38-131.5" style="opacity:0.2"></path><path d="M242.47,290.44V315.3a10.57,10.57,0,0,1-5.19,8.53L157.5,370c-.18.1-.37.18-.55.26a11.64,11.64,0,0,1-9.38-.32c-.11,0-.21-.12-.32-.18l-.16-.1-2.5-30.37Z" style="fill:#3042C8"></path><path d="M242.47,290.44V315.3a10.57,10.57,0,0,1-5.19,8.53L157.5,370c-.18.1-.37.18-.55.26a11.64,11.64,0,0,1-9.38-.32c-.11,0-.21-.12-.32-.18l-.16-.1-2.5-30.37Z" style="opacity:0.1"></path><path d="M247.21,277.29v4.4a15.91,15.91,0,0,1-7.75,12.83l-88.88,46.65a17.7,17.7,0,0,1-15.35-.31L84,311.27a16.78,16.78,0,0,1-7.58-13.14v-4.4a15.86,15.86,0,0,1,7.76-12.82L168.27,237a19.22,19.22,0,0,1,15.6-.13l55.51,27.77A15.51,15.51,0,0,1,247.21,277.29Z" style="fill:#3042C8"></path><path d="M144.87,342.7a17.27,17.27,0,0,1-9.64-1.84L84,311.27a16.8,16.8,0,0,1-7.58-13.14v-4.4c0-4.42,2.88-9.57,6.66-12.14-3.17,2.27-2.87,5.57.92,7.76L135.23,319a16.32,16.32,0,0,0,7.84,1.89Z" style="opacity:0.1"></path><path d="M150.58,319.25l88.88-46.65c4.28-2.24,4.25-5.82-.08-8l-55.51-27.77a19.22,19.22,0,0,0-15.6.13L84.15,280.91c-4.29,2.24-4.37,6-.18,8.44l51.26,29.59A17.7,17.7,0,0,0,150.58,319.25Z" style="fill:#3042C8"></path><path d="M150.58,319.25l88.88-46.65c4.28-2.24,4.25-5.82-.08-8l-55.51-27.77a19.22,19.22,0,0,0-15.6.13L84.15,280.91c-4.29,2.24-4.37,6-.18,8.44l51.26,29.59A17.7,17.7,0,0,0,150.58,319.25Z" style="fill:#fff;opacity:0.4"></path><path d="M123.84,104.15s13.1-8.87,26.91-.89,9.26,34.8,7.78,52.09-2,47.43,10.14,58.39,51.75-3.61,69.05-3.61l-15.25,56.25c-16.82-9.16-43.73-18.57-66.37-23,0,0,.74-35.07-15.33-55.1,0,0,5.93-14,2-42.13C139.23,120.09,134.37,110.24,123.84,104.15Z" style="fill:#3042C8"></path><path d="M123.84,104.15s13.1-8.87,26.91-.89,9.26,34.8,7.78,52.09-2,47.43,10.14,58.39,51.75-3.61,69.05-3.61l-15.25,56.25c-16.82-9.16-43.73-18.57-66.37-23,0,0,.74-35.07-15.33-55.1,0,0,5.93-14,2-42.13C139.23,120.09,134.37,110.24,123.84,104.15Z" style="opacity:0.1"></path><path d="M222.47,266.38c-.78-5-4-34,1.42-46.58,4.7-11,17-11.6,20.9-6.9,3.67,4.45.41,10.38-5.75,18.43-5.21,6.79-7.08,13.13-7.08,29.57Z" style="fill:#3042C8"></path><path d="M237.73,214.8a4.81,4.81,0,0,1,3.45,1.07c1.37,1.66-.44,5.55-5.85,12.62-5.74,7.48-7.76,14.79-8,29a1.29,1.29,0,0,1-.63,1.08l-.42.2c-1.2-13-1.32-29.54,1.92-37.1,2.16-5.05,6.34-6.85,9.54-6.85m0-1.16c-3.57,0-8.23,2-10.61,7.55-3.62,8.44-3,26.49-2,37.66a1.19,1.19,0,0,0,1.19,1.09,1.12,1.12,0,0,0,.6-.17l.37-.21a2.43,2.43,0,0,0,1.21-2.07c.26-14.15,2.23-21.05,7.78-28.29,6-7.89,7.67-11.83,5.83-14.07a5.88,5.88,0,0,0-4.36-1.49Z" style="fill:#fff;opacity:0.5"></path><path d="M242.47,413.73a2.35,2.35,0,0,0-1.39-1.94,7.41,7.41,0,0,0-6.71,0,2.34,2.34,0,0,0-1.39,1.94l1.39,27.43h0a1.66,1.66,0,0,0,1,1.33,5.23,5.23,0,0,0,4.75,0,1.7,1.7,0,0,0,1-1.33h0Z" style="fill:#455a64"></path><path d="M234.37,411.79a2.34,2.34,0,0,0-1.39,1.94l1,19.19a9.56,9.56,0,0,0,7.55,0l1-19.19a2.35,2.35,0,0,0-1.39-1.94A7.41,7.41,0,0,0,234.37,411.79Z" style="fill:#37474f"></path><path d="M323.14,367.17a2.35,2.35,0,0,0-1.39-1.94,7.41,7.41,0,0,0-6.71,0,2.35,2.35,0,0,0-1.39,1.94L315,394.6h0a1.66,1.66,0,0,0,1,1.33,5.23,5.23,0,0,0,4.75,0,1.7,1.7,0,0,0,1-1.33h0Z" style="fill:#455a64"></path><path d="M315,365.23a2.35,2.35,0,0,0-1.39,1.94l1.22,24.11,7.26-4.25,1-19.86a2.35,2.35,0,0,0-1.39-1.94A7.41,7.41,0,0,0,315,365.23Z" style="fill:#37474f"></path><path d="M190.27,383.6a2.35,2.35,0,0,0-1.38-1.94,7.44,7.44,0,0,0-6.72,0,2.38,2.38,0,0,0-1.39,1.94L182.17,411h0a1.67,1.67,0,0,0,1,1.34,5.27,5.27,0,0,0,4.74,0,1.67,1.67,0,0,0,1-1.34h0Z" style="fill:#455a64"></path><path d="M182.17,381.66a2.38,2.38,0,0,0-1.39,1.94l1,20,7.26,4,1.21-24a2.35,2.35,0,0,0-1.38-1.94A7.44,7.44,0,0,0,182.17,381.66Z" style="fill:#37474f"></path><path d="M176,375.75v15.73a11.17,11.17,0,0,0,5.06,8.76L232.67,430a11.14,11.14,0,0,0,10.12,0l80-46.21a11.18,11.18,0,0,0,5.06-8.76V359.31a11.18,11.18,0,0,0-5.06-8.76l-51.57-29.78a11.21,11.21,0,0,0-10.12,0L181.1,367A11.19,11.19,0,0,0,176,375.75Z" style="fill:#3042C8"></path><path d="M237.73,403.81v27.41a10.4,10.4,0,0,1-5.06-1.2l-51.58-29.78a11.19,11.19,0,0,1-5.06-8.76V375.75a11.3,11.3,0,0,1,4.55-8.44c-2.28,1.63-2.1,4,.51,5.52l51.57,29.77A10.29,10.29,0,0,0,237.73,403.81Z" style="opacity:0.2"></path><path d="M327.89,359.31V375a11.19,11.19,0,0,1-5.06,8.76l-80,46.22a10.35,10.35,0,0,1-5.05,1.19v-27.4a10.28,10.28,0,0,0,5.05-1.21l80-46.21c2.6-1.51,2.78-3.89.51-5.51A11.29,11.29,0,0,1,327.89,359.31Z" style="opacity:0.1"></path><path d="M181.1,367l80-46.21a11.21,11.21,0,0,1,10.12,0l51.57,29.78c2.79,1.61,2.79,4.22,0,5.84l-80,46.21a11.21,11.21,0,0,1-10.12,0L181.1,372.83C178.3,371.21,178.3,368.6,181.1,367Z" style="fill:#3042C8"></path><g id="freepik--shadow--inject-17" style="opacity:0.07"><path d="M228.27,289.81c-3.64-6.59-7.4-13.33-13.09-18.25-5.1-4.41-11.43-7.1-17.68-9.62-19.37-7.81-40.08-15.41-53.26-31.62-8.18-10.07-12.69-22.65-15.47-35.31-1.39-6.35-2.41-12.84-4.89-18.85S117.2,164.54,111.22,162c-2.78-1.19-5.55-1.38-8.48-1.85-1.25-.2-2.45-.77-3.74-.95a15.72,15.72,0,0,0-4.44.06,36.28,36.28,0,0,0-7.79,2.37,14.38,14.38,0,0,0-3.93,2.08,7.42,7.42,0,0,0,.42,11.76A10.15,10.15,0,0,0,86,191a2.19,2.19,0,0,1,1,.85,2,2,0,0,1-.4,1.75c-1.93,3.16-4,6.25-5.89,9.4-1.76,2.89-4.1,6.73-4.1,10.24-.58,4.46.67,8.93,1.9,13.26l7.65,26.78c2.36,8.3,5.28,17.35,12.63,21.87,6.48,4,15.14,3.51,21.22,8.1,5.48,4.15,7.6,11.46,12.55,16.24s11.55,6.22,17.93,7.36c7.58,1.36,15.21,2.08,22.86,2.9a1.14,1.14,0,0,1,.66.2,1.23,1.23,0,0,1,.33.77,37.84,37.84,0,0,0,2.9,10.27,40.57,40.57,0,0,0,4.94,7.21,70.16,70.16,0,0,0,17.39,15.19c.63.41,1.26.82,1.91,1.19l27.34-15.81,8.63-5a10.6,10.6,0,0,0,5-8.27Z"></path></g><g id="freepik--shadow--inject-17"><g style="opacity:0.07"><path d="M287,358c-1.7-.28-3.4-.57-5.07-1A28,28,0,0,1,275,354.2c-10.85-5.77-18.8-15.68-28.34-23.42a14.73,14.73,0,0,0-1.26-.94l-11.75,6.78,4.4,4.19a13.48,13.48,0,0,1,2.08,2.32c.89,1.35.73,2.62.91,4.14a7.71,7.71,0,0,0,2.71,4.86c2.23,2,5.39,3.26,7.85,4.64a36.86,36.86,0,0,1,6.74,5,26.39,26.39,0,0,0,21.49,6.42,17.64,17.64,0,0,0,6.82-2.45c1.62-1,4.77-3.57,3.79-5.81C289.92,358.64,288.33,358.24,287,358Z"></path></g><g style="opacity:0.07"><path d="M253,383.3a17.66,17.66,0,0,0,6.82-2.46c1.62-1,4.77-3.56,3.79-5.81-.56-1.28-2.15-1.67-3.53-1.9-1.7-.29-3.4-.57-5.07-1a27.64,27.64,0,0,1-6.84-2.83c-10.85-5.76-18.8-15.67-28.34-23.41-.3-.25-.62-.5-1-.74L207.09,352l4.14,3.94a13.86,13.86,0,0,1,2.08,2.32c.89,1.35.73,2.63.91,4.14a7.69,7.69,0,0,0,2.71,4.86c2.23,2,5.39,3.26,7.85,4.65a37.27,37.27,0,0,1,6.74,5A26.43,26.43,0,0,0,253,383.3Z"></path></g></g><g id="freepik--character--inject-17"><path d="M281,352.42a58.3,58.3,0,0,1-15.07-12.56,84.75,84.75,0,0,1-12.14-18.38c-7.39-14.89-22.33-45.33-25.51-50.21-4.53-7-29.95-17.34-42.71-23.44a269.91,269.91,0,0,0-29.65-12l-25.43-1.43c-.6,8.67-1.16,15.4,2.76,23.67S145.55,271.6,158.28,277c10.54,4.49,40,9,43.06,9.93s6.11.37,7.73,5.88,1.4,8.1,7.77,14.71c8.18,8.49,22.27,19,27.63,28.43a16.23,16.23,0,0,1,1.08,6.78c-.79,8.87,6.65,8.2,12,13,2.89,2.59,4.88,5.5,8.64,7a24.87,24.87,0,0,0,10.74,1.53c3.29-.24,8.28-1.88,10-4.29C289.58,356.21,284.37,354.34,281,352.42Z" style="fill:#ffa8a7"></path><path d="M157.58,235.88a382.08,382.08,0,0,1,38.34,16.21c22.82,11,28.88,13.86,32.31,18.1s19.64,39.44,19.64,39.44-2.9,10.24-15.56,12.23c0,0-14.29-11.83-17.41-15s-5-8.08-6.45-12.9-2.74-5.3-19.53-8.24-41-8-52-20.65-10.63-24-10.63-24Z" style="fill:#3042C8"></path><path d="M157.58,235.88a382.08,382.08,0,0,1,38.34,16.21c22.82,11,28.88,13.86,32.31,18.1s19.64,39.44,19.64,39.44-2.9,10.24-15.56,12.23c0,0-14.29-11.83-17.41-15s-5-8.08-6.45-12.9-2.74-5.3-19.53-8.24-41-8-52-20.65-10.63-24-10.63-24Z" style="opacity:0.5"></path><path d="M210.22,291.57c-1.07-7.06-10.24-11.13-18-14.82-6.6-3.13-35.16-16.44-35.16-16.44,2.31-5.78,2-19.31,2-19.31l-28.48,9.2a32.2,32.2,0,0,0,2.59,7.92c3.92,8.27,12.35,13.48,25.08,18.92,5.81,2.47,17.19,5.57,26.76,8,1.33.25,2.63.48,3.88.7,16.79,2.94,18.11,3.42,19.53,8.24s3.33,9.75,6.45,12.9c.45.44,1.12,1.07,1.94,1.81h0C211.14,301.55,210.84,295.62,210.22,291.57Z" style="opacity:0.1"></path><path d="M287.15,359.89c2.72-3.75-3.3-6.12-6.19-7.83-9.27-5.49-16.31-13.4-22.33-21.89a11.19,11.19,0,0,1-4.94,5c-3.74,2-9.22.86-9.22.86a16.62,16.62,0,0,1,.87,6.88c-.78,8.86,6.85,8.33,12.17,13.11,2.89,2.59,4.89,5.5,8.65,7a24.72,24.72,0,0,0,10.74,1.53C280.18,364.27,285.09,362.72,287.15,359.89Z" style="fill:#fafafa"></path><path d="M245.33,340.16a16.34,16.34,0,0,1,0,2.71c-.59,6.73,3.67,8.05,8.08,10.38C255.06,347.34,250.5,342.14,245.33,340.16Z" style="fill:#3042C8"></path><path d="M245.33,340.16a16.34,16.34,0,0,1,0,2.71c-.59,6.73,3.67,8.05,8.08,10.38C255.06,347.34,250.5,342.14,245.33,340.16Z" style="opacity:0.4"></path><path d="M282.3,352.81a15.47,15.47,0,0,0-4.88,2.11c-4.07,2.77-5.79,4.15-6.91,9.27a26,26,0,0,0,6.39.32c3.28-.24,8.19-1.79,10.25-4.62C289.5,356.66,285.35,354.46,282.3,352.81Z" style="fill:#3042C8"></path><path d="M282.3,352.81a15.47,15.47,0,0,0-4.88,2.11c-4.07,2.77-5.79,4.15-6.91,9.27a26,26,0,0,0,6.39.32c3.28-.24,8.19-1.79,10.25-4.62C289.5,356.66,285.35,354.46,282.3,352.81Z" style="opacity:0.4"></path><path d="M253.32,367a66,66,0,0,1-15.11-12.53A82.56,82.56,0,0,1,226,336.63c-7.52-14.6-22.63-43.8-25.8-48.66-6-9.28-47.87-25.77-47.87-25.77,2.1-4.5,6.71-15.58,6.65-20.18l-52.16,9.15c1.48,11.28,3.89,19.51,7.93,25.58,5.48,8.22,9.44,13.52,22.41,17.7,10.9,3.51,33.45,6.8,36.55,7.73s6.12.37,7.74,5.88,1.4,8.1,7.77,14.71c8.18,8.49,22.26,18.78,27.63,28.2a16.46,16.46,0,0,1,.87,6.88c-.78,8.86,6.86,8.33,12.17,13.11,2.89,2.59,4.89,5.5,8.65,7a24.87,24.87,0,0,0,10.74,1.53c3.28-.24,8.19-1.79,10.25-4.62C262.23,371.12,256.21,368.75,253.32,367Z" style="fill:#ffa8a7"></path><path d="M106.8,251.17s.41,29.68,18.22,40,50.08,10.28,52.92,15.76,2.84,9.41,8.5,15.46c5.41,5.79,19.54,15.53,19.54,15.53s12.12-2.19,16-9.08c0,0-15.65-33.95-20.61-41.83s-49-24.77-49-24.77,6-7.37,6.78-21.2S106.8,251.17,106.8,251.17Z" style="fill:#3042C8"></path><path d="M106.8,251.17s.41,29.68,18.22,40,50.08,10.28,52.92,15.76,2.84,9.41,8.5,15.46c5.41,5.79,19.54,15.53,19.54,15.53s12.12-2.19,16-9.08c0,0-15.65-33.95-20.61-41.83s-49-24.77-49-24.77,6-7.37,6.78-21.2S106.8,251.17,106.8,251.17Z" style="opacity:0.4"></path><path d="M259.51,374.87c2.72-3.75-3.3-6.12-6.19-7.83-9.27-5.49-16.34-13.4-22.36-21.89a10.94,10.94,0,0,1-4.91,5c-3.74,2-9.22.86-9.22.86a16.46,16.46,0,0,1,.87,6.88c-.78,8.86,6.86,8.33,12.17,13.11,2.89,2.59,4.89,5.5,8.65,7a24.87,24.87,0,0,0,10.74,1.53C252.54,379.25,257.45,377.7,259.51,374.87Z" style="fill:#fafafa"></path><path d="M217.69,355.14a16.33,16.33,0,0,1,0,2.71c-.59,6.73,3.67,8,8.08,10.38C227.42,362.32,222.86,357.12,217.69,355.14Z" style="fill:#3042C8"></path><path d="M217.69,355.14a16.33,16.33,0,0,1,0,2.71c-.59,6.73,3.67,8,8.08,10.38C227.42,362.32,222.86,357.12,217.69,355.14Z" style="opacity:0.4"></path><path d="M254.67,367.79a15.43,15.43,0,0,0-4.89,2.11c-4.07,2.76-5.79,4.15-6.91,9.26a26,26,0,0,0,6.39.33c3.28-.24,8.19-1.79,10.25-4.62C261.86,371.64,257.71,369.43,254.67,367.79Z" style="fill:#3042C8"></path><path d="M254.67,367.79a15.43,15.43,0,0,0-4.89,2.11c-4.07,2.76-5.79,4.15-6.91,9.26a26,26,0,0,0,6.39.33c3.28-.24,8.19-1.79,10.25-4.62C261.86,371.64,257.71,369.43,254.67,367.79Z" style="opacity:0.4"></path><path d="M90.32,130.29c-6.52,11-3.76,25.07-3.76,25.07a10.27,10.27,0,0,0-5.17,9.07c.07,6.4,6.67,8.21,6.67,8.21a9,9,0,0,0-2.18,8.22c1.28,4.74,8.19,11.61,18.4,8.22a22.62,22.62,0,0,0,13.55-11.69Z" style="fill:#263238"></path><circle cx="130.53" cy="174.08" r="7.55" transform="translate(-56.68 63.2) rotate(-22.5)" style="fill:#263238"></circle><path d="M201.74,185.2s-9.37,10.29-16.85,17.64c-7.93-4.91-21-15-27.93-20.25-10.22-7.74-17.16-7.55-24.74-6.32,0,0,3.34,5.55,6.14,10,2.5,3.92,9.79,16.31,9.79,16.31s30.64,17.32,35.2,19.15,7.94.42,10.16-2.12c1-1.18,9-13.5,12-18.57,1.47-2.43,3.55-6,5.15-8.35Z" style="fill:#ffa8a7"></path><path d="M110.07,180.71l-11.59,3.95s4.62,5.31,4.11,18.5c-.24,6.11-2.18,9.67-4.45,13.28-.78,11.75,9.53,34.52,9.53,34.52s11.21,5.7,31.25-.46c17.61-5.41,15.4-11,15.4-11l-7.16-10.25.65-10.78a144.09,144.09,0,0,0-3.65-23.63c-2.84-10.67-11.94-18.54-11.94-18.54l-4.77.79Z" style="fill:#ffa8a7"></path><path d="M163,237.84l-10.18-5.44-2.88-6.31.71-7.86c5.84-5.25,6.45-11.88,2.29-18.19-3.42-5.19-8-9.76-12.86-14.83a74,74,0,0,0-9.67-8.63,25.45,25.45,0,0,0-6.11,1.16s3.74,4,3.93,7.71c.23,4.72-7.26,6-12.38,5s-8-3.63-11.4-7.76l-5.92,2c5,4.69,7,15,5.89,23.88s-5.43,10.68-5.43,10.68l-.19,4.88a113.37,113.37,0,0,0,3.07,14.3c1.85,6,4.1,13.08,4.1,13.08s.88,10.07,2.21,13.21c1.15-.72,3.24-1.61,4.08-4.75,6.17,4.19,28.41,7.12,40.1-2.37C163.8,248.25,163,237.84,163,237.84Z" style="fill:#37474f"></path><path d="M140.73,230.34a7.24,7.24,0,0,1-2.89-.56c-1.27-.54-2.33-2-3.23-4.42-.77-2.05-1.93-6.53-.84-8.76,1.38-2.83,4.89-2.75,7.21-2.7h.81l0,3.66h-.86c-1.31,0-3.49-.07-3.85.65-.54,1.42,1.11,7.43,2.27,8.23a5.73,5.73,0,0,0,3.39-.06l1.17,3.47A10,10,0,0,1,140.73,230.34Z" style="fill:#e6e6e6"></path><path d="M141,210.08c.27-1.13,1.4-2.23,3.4-3.09a24,24,0,0,1,16.71.07c2,.87,3.11,2,3.38,3.11h.06c.76,7.46-.6,16.1-3.28,20.88a.41.41,0,0,1,0,.09l0,.08h0a5.66,5.66,0,0,1-2.19,2,14,14,0,0,1-12.67,0,5.72,5.72,0,0,1-2.17-2.07h0l0-.06-.06-.12c-2.63-4.79-3.93-13.44-3.12-20.89Z" style="fill:#f5f5f5"></path><path d="M144.42,207c-4.62,2-4.63,5.24,0,7.26a24,24,0,0,0,16.71.06c4.62-2,4.63-5.23,0-7.25A24,24,0,0,0,144.42,207Z" style="fill:#fafafa"></path><path d="M146,208.26c-3.73,1.29-3.73,3.41,0,4.74a23.7,23.7,0,0,0,13.48.05c3.73-1.3,3.73-3.42,0-4.74A23.52,23.52,0,0,0,146,208.26Z" style="fill:#e6e6e6"></path><path d="M146,211.12a7.06,7.06,0,0,0-1.87.93A7.26,7.26,0,0,0,146,213a23.7,23.7,0,0,0,13.48.05,7.37,7.37,0,0,0,1.87-.93,7.26,7.26,0,0,0-1.86-1A23.7,23.7,0,0,0,146,211.12Z" style="fill:#37474f"></path><path d="M96.55,259.26c-5.93-11.87-9.62-22.3-15.16-44.78-4.48-18.16,3.18-27,17.09-29.82,10.76,17.25,3.28,31.82,3.28,31.82l8.59,26.44s21.32-12.82,23.93-14.85c2.15-1.66,3.79-10,6.54-10.23a45.38,45.38,0,0,0,.68,5.33s6.31,2.62,12.27,2,11.28-5.93,10.6-.45c-.27,2.18-.78,6.28-3.74,9.29s-14.63,5.3-17.81,7.15c0,0-17.14,13.69-27.23,21.2C108.65,267.5,102.28,270.75,96.55,259.26Z" style="fill:#ffa8a7"></path><path d="M127.19,119.18c-21-7.61-35.67,3.5-39.12,16.79-2.3,8.86,1.07,18.54,6.2,25,2.7,3.42,3.74,4.89,5.84,6.8s4.15,3.52,5.56,3.71l-.29-6a20.56,20.56,0,0,0,10.07,2.08l5.41-.2c12.83-.47,18.08-12.76,23.2-27.73C149.07,125.05,137,122.73,127.19,119.18Z" style="fill:#263238"></path><path d="M133.06,128.14c3.15,1.66,7.32,9.18,7.73,25.36.35,13.71-3.92,17.31-6.1,18.39s-6.51.7-10.72.21l.33,6.68-18.12,3.8-.9-19.67s-2.34,2.51-6.69-.94c-3.59-2.84-5-7.86-2.45-10.71a6,6,0,0,1,9.64,1.43s6.25-1.31,14.88-6.62S131.74,134.26,133.06,128.14Z" style="fill:#ffa8a7"></path><circle cx="136.27" cy="149.91" r="1.76" style="fill:#263238"></circle><circle cx="122.98" cy="151" r="1.76" style="fill:#263238"></circle><path d="M125.1,162.26l4,1.23a2.07,2.07,0,0,1-2.59,1.47A2.21,2.21,0,0,1,125.1,162.26Z" style="fill:#f28f8f"></path><path d="M138.6,145.2l-3.51-2.38a2,2,0,0,1,2.89-.62A2.22,2.22,0,0,1,138.6,145.2Z" style="fill:#263238"></path><polygon points="130.06 147.49 130.07 158.73 135.52 156.98 130.06 147.49" style="fill:#f28f8f"></polygon><path d="M124,172.1c-4.43-.36-13.62-2.52-15.21-6a9.29,9.29,0,0,0,3.4,4.42c2.82,2.19,11.94,4.36,11.94,4.36Z" style="fill:#f28f8f"></path><path d="M208,148.17s-.35-1.49,1.39-3.29,4.14-3.4,4.38-7.19l3,1.13-3.32,8.51Z" style="fill:#3042C8"></path><path d="M208,148.17s-.35-1.49,1.39-3.29,4.14-3.4,4.38-7.19l3,1.13-3.32,8.51Z" style="fill:#fff;opacity:0.8"></path><path d="M208,148.17s-3.24-1-9.56,1.44-11.38,5.07-24,6.89l3.58,1.34,32.33-7.32Z" style="fill:#3042C8"></path><path d="M208,148.17s-3.24-1-9.56,1.44-11.38,5.07-24,6.89l3.58,1.34,32.33-7.32Z" style="fill:#fff;opacity:0.8"></path><polygon points="174.41 156.5 168.98 196 172.55 197.35 177.99 157.84 174.41 156.5" style="fill:#3042C8"></polygon><polygon points="174.41 156.5 168.98 196 172.55 197.35 177.99 157.84 174.41 156.5" style="fill:#fff;opacity:0.8"></polygon><polygon points="174.41 156.5 168.98 196 172.55 197.35 177.99 157.84 174.41 156.5" style="opacity:0.1"></polygon><g style="opacity:0.1"><path d="M214.07,139.71a6.54,6.54,0,0,1-1,2.34,22.14,22.14,0,0,1-1.59,2,13.17,13.17,0,0,0-1.56,2,4.32,4.32,0,0,0-.48,1.13,2.39,2.39,0,0,0,0,1.15l-.39.12a2.72,2.72,0,0,1,.1-1.37,5.15,5.15,0,0,1,.55-1.19,13.16,13.16,0,0,1,1.68-2A18.89,18.89,0,0,0,213,142,6.39,6.39,0,0,0,214.07,139.71Z"></path><path d="M213.9,141.92a6.8,6.8,0,0,1-.79,1.45c-.31.46-.63.91-.93,1.37a8.29,8.29,0,0,0-.78,1.43,3.4,3.4,0,0,0-.27,1.53l-.41,0a3.8,3.8,0,0,1,.4-1.67,9,9,0,0,1,.89-1.43c.33-.44.68-.87,1-1.31A6.48,6.48,0,0,0,213.9,141.92Z"></path><path d="M187,154.68a47.67,47.67,0,0,0,5.2-1.67c1.7-.64,3.37-1.36,5.05-2.06a25,25,0,0,1,5.24-1.59,19.21,19.21,0,0,1,2.73-.34,8.07,8.07,0,0,1,1.39,0,3.25,3.25,0,0,1,1.39.42l-.23.34a2.78,2.78,0,0,0-1.2-.38,8.53,8.53,0,0,0-1.34-.06,20.47,20.47,0,0,0-2.69.29,25,25,0,0,0-5.22,1.47c-1.69.67-3.37,1.37-5.09,2A47.64,47.64,0,0,1,187,154.68Z"></path><path d="M195.64,153.09c1-.31,2-.68,2.92-1s1.95-.71,2.94-1a21.1,21.1,0,0,1,3.05-.71,8.36,8.36,0,0,1,3.15.06l-.1.39a8.26,8.26,0,0,0-3-.15,20,20,0,0,0-3,.61c-1,.27-2,.59-3,.91S196.64,152.82,195.64,153.09Z"></path></g><polygon points="216.43 136.94 212.57 147.01 206.74 189.37 208.53 190.04 212.04 177.9 218.21 137.6 216.43 136.94" style="fill:#3042C8"></polygon><polygon points="214.36 147.68 218.21 137.6 212.04 177.9 208.53 190.04 214.36 147.68" style="opacity:0.2"></polygon><polygon points="207.72 151 175.86 158.41 170.03 200.78 171.82 201.45 203.68 194.03 209.51 151.67 207.72 151" style="fill:#3042C8"></polygon><polygon points="177.65 159.09 171.82 201.45 203.68 194.03 209.51 151.67 177.65 159.09" style="opacity:0.2"></polygon><polygon points="175.86 158.41 177.65 159.09 171.82 201.45 170.03 200.78 175.86 158.41" style="opacity:0.30000000000000004"></polygon><path d="M209.51,151.67l4.85-4L208.53,190c-.47,2.32-2.15,3.59-4.85,4Z" style="fill:#3042C8"></path><path d="M209.51,151.67l4.85-4L208.53,190c-.55,2.46-2.3,3.65-4.85,4Z" style="opacity:0.30000000000000004"></path><path d="M212.38,146.93c-1.1-.41-3.07.14-4.41,1.24s-1.54,2.33-.44,2.75l2,.75,4.85-4-1.79-.67Z" style="fill:#455a64"></path><path d="M212.57,147c-.06,1.6-1.87,2.89-4.85,4l1.79.67c2.59-.74,4.16-2.1,4.85-4Z" style="fill:#3042C8"></path><path d="M210.68,192.65c4.45-7.28,3.32-17.76.84-21.13-1.65-2.24-10.33.89-10.8,9.69-.46,8.59-1,11.47-3.87,14.41Z" style="fill:#ffa8a7"></path></g><path d="M61.77,303.93l72.87,36.59-1.31-22.67,9.49-5.48c-.68-17.58-5.5-35.62-17.95-39.62-15.56-4.92-35.75-6.51-47.86-17.47S65.39,214.19,66.87,196.9s6-44.12-7.78-52.1-26.92.9-26.92.9C26.27,149.53,19.41,152.3,20,157a5,5,0,0,0,4.2,4.74Z" style="fill:#3042C8"></path><path d="M61.77,303.93l72.87,36.59-1.31-22.67,9.49-5.48c-.68-17.58-5.5-35.62-17.95-39.62-15.56-4.92-35.75-6.51-47.86-17.47S65.39,214.19,66.87,196.9s6-44.12-7.78-52.1-26.92.9-26.92.9C26.27,149.53,19.41,152.3,20,157a5,5,0,0,0,4.2,4.74Z" style="opacity:0.2"></path><path d="M50.05,160.83c5.52,6.62,8.37,17.12,7.35,42.94s-.61,46.63,9.49,59.28c12,15,53.05,27,53.05,27l16-7.34c-2.72-4.81-6.35-8.39-11.11-9.92-15.56-4.92-35.75-6.51-47.86-17.47S65.39,214.19,66.87,196.9s6-44.12-7.78-52.1-26.92.9-26.92.9C26.27,149.53,19.41,152.3,20,157a5,5,0,0,0,4.2,4.74C31.88,159.16,44.52,154.22,50.05,160.83Z" style="fill:#3042C8"></path><path d="M50.05,160.83c5.52,6.62,8.37,17.12,7.35,42.94s-.61,46.63,9.49,59.28c12,15,53.05,27,53.05,27l16-7.34c-2.72-4.81-6.35-8.39-11.11-9.92-15.56-4.92-35.75-6.51-47.86-17.47S65.39,214.19,66.87,196.9s6-44.12-7.78-52.1-26.92.9-26.92.9C26.27,149.53,19.41,152.3,20,157a5,5,0,0,0,4.2,4.74C31.88,159.16,44.52,154.22,50.05,160.83Z" style="opacity:0.1"></path><path d="M133.33,317.85l9.49-5.48c0-10.52-2.71-33.39-16-38.92-10.57-4.39-15.67,2.06-15.56,6,.13,4.48,3.36,7.43,8.71,10.52C127,294.09,133.33,301.41,133.33,317.85Z" style="fill:#3042C8"></path><path d="M120.2,276.65a12.8,12.8,0,0,1,4.8,1.12c8.81,3.65,12.53,18.78,13.08,31.71a.32.32,0,0,1-.16.32l-.42.24C136,298.86,131,291,122.28,286c-5.81-3.34-6.34-5.16-6.38-6.6a2.53,2.53,0,0,1,.78-1.44,4.68,4.68,0,0,1,3.52-1.27m0-1.17a5.82,5.82,0,0,0-4.36,1.63,3.46,3.46,0,0,0-1.1,2.28c.06,2.18,1.27,4.3,7,7.58,8.61,5,13.44,12.87,14.77,24.18a.52.52,0,0,0,.52.46.45.45,0,0,0,.25-.07l1.27-.73a1.51,1.51,0,0,0,.75-1.38c-.57-13.29-4.49-28.88-13.8-32.74a14,14,0,0,0-5.25-1.21Z" style="fill:#fff;opacity:0.5"></path></g></g></svg>